<svg aria-hidden="true" style="position: absolute; width: 0; height: 0; overflow: hidden;" version="1.1" xmlns="http://www.w3.org/2000/svg" xmlns:xlink="http://www.w3.org/1999/xlink">
<defs>
<symbol id="ico-user" viewBox="0 0 20 28">
<path d="M20 21.859c0 2.281-1.5 4.141-3.328 4.141h-13.344c-1.828 0-3.328-1.859-3.328-4.141 0-4.109 1.016-8.859 5.109-8.859 1.266 1.234 2.984 2 4.891 2s3.625-0.766 4.891-2c4.094 0 5.109 4.75 5.109 8.859zM16 8c0 3.313-2.688 6-6 6s-6-2.688-6-6 2.688-6 6-6 6 2.688 6 6z"></path>
</symbol>
<symbol id="ico-home" viewBox="0 0 26 28">
<path d="M22 15.5v7.5c0 0.547-0.453 1-1 1h-6v-6h-4v6h-6c-0.547 0-1-0.453-1-1v-7.5c0-0.031 0.016-0.063 0.016-0.094l8.984-7.406 8.984 7.406c0.016 0.031 0.016 0.063 0.016 0.094zM25.484 14.422l-0.969 1.156c-0.078 0.094-0.203 0.156-0.328 0.172h-0.047c-0.125 0-0.234-0.031-0.328-0.109l-10.813-9.016-10.813 9.016c-0.109 0.078-0.234 0.125-0.375 0.109-0.125-0.016-0.25-0.078-0.328-0.172l-0.969-1.156c-0.172-0.203-0.141-0.531 0.063-0.703l11.234-9.359c0.656-0.547 1.719-0.547 2.375 0l3.813 3.187v-3.047c0-0.281 0.219-0.5 0.5-0.5h3c0.281 0 0.5 0.219 0.5 0.5v6.375l3.422 2.844c0.203 0.172 0.234 0.5 0.063 0.703z"></path>
</symbol>
<symbol id="ico-chevron-down" viewBox="0 0 28 28">
<path d="M26.297 12.625l-11.594 11.578c-0.391 0.391-1.016 0.391-1.406 0l-11.594-11.578c-0.391-0.391-0.391-1.031 0-1.422l2.594-2.578c0.391-0.391 1.016-0.391 1.406 0l8.297 8.297 8.297-8.297c0.391-0.391 1.016-0.391 1.406 0l2.594 2.578c0.391 0.391 0.391 1.031 0 1.422z"></path>
</symbol>
<symbol id="ico-gears" viewBox="0 0 30 28">
<path d="M14 14c0-2.203-1.797-4-4-4s-4 1.797-4 4 1.797 4 4 4 4-1.797 4-4zM26 22c0-1.094-0.906-2-2-2s-2 0.906-2 2c0 1.109 0.906 2 2 2 1.109 0 2-0.906 2-2zM26 6c0-1.094-0.906-2-2-2s-2 0.906-2 2c0 1.109 0.906 2 2 2 1.109 0 2-0.906 2-2zM20 12.578v2.891c0 0.203-0.156 0.438-0.359 0.469l-2.422 0.375c-0.125 0.406-0.297 0.797-0.5 1.188 0.438 0.625 0.906 1.203 1.406 1.797 0.063 0.094 0.109 0.187 0.109 0.313 0 0.109-0.031 0.219-0.109 0.297-0.313 0.422-2.063 2.328-2.516 2.328-0.125 0-0.234-0.047-0.328-0.109l-1.797-1.406c-0.391 0.203-0.781 0.359-1.203 0.484-0.078 0.797-0.156 1.656-0.359 2.422-0.063 0.219-0.25 0.375-0.469 0.375h-2.906c-0.219 0-0.438-0.172-0.469-0.391l-0.359-2.391c-0.406-0.125-0.797-0.297-1.172-0.484l-1.844 1.391c-0.078 0.078-0.203 0.109-0.313 0.109-0.125 0-0.234-0.047-0.328-0.125-0.406-0.375-2.25-2.047-2.25-2.5 0-0.109 0.047-0.203 0.109-0.297 0.453-0.594 0.922-1.172 1.375-1.781-0.219-0.422-0.406-0.844-0.547-1.281l-2.375-0.375c-0.219-0.031-0.375-0.234-0.375-0.453v-2.891c0-0.203 0.156-0.438 0.359-0.469l2.422-0.375c0.125-0.406 0.297-0.797 0.5-1.188-0.438-0.625-0.906-1.203-1.406-1.797-0.063-0.094-0.109-0.203-0.109-0.313s0.031-0.219 0.109-0.313c0.313-0.422 2.063-2.312 2.516-2.312 0.125 0 0.234 0.047 0.328 0.109l1.797 1.406c0.391-0.203 0.781-0.359 1.203-0.5 0.078-0.781 0.156-1.641 0.359-2.406 0.063-0.219 0.25-0.375 0.469-0.375h2.906c0.219 0 0.438 0.172 0.469 0.391l0.359 2.391c0.406 0.125 0.797 0.297 1.172 0.484l1.844-1.391c0.094-0.078 0.203-0.109 0.313-0.109 0.125 0 0.234 0.047 0.328 0.125 0.406 0.375 2.25 2.063 2.25 2.5 0 0.109-0.047 0.203-0.109 0.297-0.453 0.609-0.922 1.172-1.359 1.781 0.203 0.422 0.391 0.844 0.531 1.281l2.375 0.359c0.219 0.047 0.375 0.25 0.375 0.469zM30 20.906v2.188c0 0.234-2.016 0.453-2.328 0.484-0.125 0.297-0.281 0.562-0.469 0.812 0.141 0.313 0.797 1.875 0.797 2.156 0 0.047-0.016 0.078-0.063 0.109-0.187 0.109-1.859 1.109-1.937 1.109-0.203 0-1.375-1.563-1.531-1.797-0.156 0.016-0.313 0.031-0.469 0.031s-0.313-0.016-0.469-0.031c-0.156 0.234-1.328 1.797-1.531 1.797-0.078 0-1.75-1-1.937-1.109-0.047-0.031-0.063-0.078-0.063-0.109 0-0.266 0.656-1.844 0.797-2.156-0.187-0.25-0.344-0.516-0.469-0.812-0.313-0.031-2.328-0.25-2.328-0.484v-2.188c0-0.234 2.016-0.453 2.328-0.484 0.125-0.281 0.281-0.562 0.469-0.812-0.141-0.313-0.797-1.891-0.797-2.156 0-0.031 0.016-0.078 0.063-0.109 0.187-0.094 1.859-1.094 1.937-1.094 0.203 0 1.375 1.547 1.531 1.781 0.156-0.016 0.313-0.031 0.469-0.031s0.313 0.016 0.469 0.031c0.438-0.609 0.906-1.219 1.437-1.75l0.094-0.031c0.078 0 1.75 0.984 1.937 1.094 0.047 0.031 0.063 0.078 0.063 0.109 0 0.281-0.656 1.844-0.797 2.156 0.187 0.25 0.344 0.531 0.469 0.812 0.313 0.031 2.328 0.25 2.328 0.484zM30 4.906v2.187c0 0.234-2.016 0.453-2.328 0.484-0.125 0.297-0.281 0.562-0.469 0.812 0.141 0.313 0.797 1.875 0.797 2.156 0 0.047-0.016 0.078-0.063 0.109-0.187 0.109-1.859 1.109-1.937 1.109-0.203 0-1.375-1.563-1.531-1.797-0.156 0.016-0.313 0.031-0.469 0.031s-0.313-0.016-0.469-0.031c-0.156 0.234-1.328 1.797-1.531 1.797-0.078 0-1.75-1-1.937-1.109-0.047-0.031-0.063-0.078-0.063-0.109 0-0.266 0.656-1.844 0.797-2.156-0.187-0.25-0.344-0.516-0.469-0.812-0.313-0.031-2.328-0.25-2.328-0.484v-2.188c0-0.234 2.016-0.453 2.328-0.484 0.125-0.281 0.281-0.562 0.469-0.812-0.141-0.313-0.797-1.891-0.797-2.156 0-0.031 0.016-0.078 0.063-0.109 0.187-0.094 1.859-1.094 1.937-1.094 0.203 0 1.375 1.547 1.531 1.781 0.156-0.016 0.313-0.031 0.469-0.031s0.313 0.016 0.469 0.031c0.438-0.609 0.906-1.219 1.437-1.75l0.094-0.031c0.078 0 1.75 0.984 1.937 1.094 0.047 0.031 0.063 0.078 0.063 0.109 0 0.281-0.656 1.844-0.797 2.156 0.187 0.25 0.344 0.531 0.469 0.812 0.313 0.031 2.328 0.25 2.328 0.484z"></path>
</symbol>
<symbol id="ico-burger" viewBox="0 0 24 28">
<path d="M24 21v2c0 0.547-0.453 1-1 1h-22c-0.547 0-1-0.453-1-1v-2c0-0.547 0.453-1 1-1h22c0.547 0 1 0.453 1 1zM24 13v2c0 0.547-0.453 1-1 1h-22c-0.547 0-1-0.453-1-1v-2c0-0.547 0.453-1 1-1h22c0.547 0 1 0.453 1 1zM24 5v2c0 0.547-0.453 1-1 1h-22c-0.547 0-1-0.453-1-1v-2c0-0.547 0.453-1 1-1h22c0.547 0 1 0.453 1 1z"></path>
</symbol>
<symbol id="ico-envelope" viewBox="0 0 28 28">
<path d="M28 11.094v12.406c0 1.375-1.125 2.5-2.5 2.5h-23c-1.375 0-2.5-1.125-2.5-2.5v-12.406c0.469 0.516 1 0.969 1.578 1.359 2.594 1.766 5.219 3.531 7.766 5.391 1.313 0.969 2.938 2.156 4.641 2.156h0.031c1.703 0 3.328-1.188 4.641-2.156 2.547-1.844 5.172-3.625 7.781-5.391 0.562-0.391 1.094-0.844 1.563-1.359zM28 6.5c0 1.75-1.297 3.328-2.672 4.281-2.438 1.687-4.891 3.375-7.313 5.078-1.016 0.703-2.734 2.141-4 2.141h-0.031c-1.266 0-2.984-1.437-4-2.141-2.422-1.703-4.875-3.391-7.297-5.078-1.109-0.75-2.688-2.516-2.688-3.938 0-1.531 0.828-2.844 2.5-2.844h23c1.359 0 2.5 1.125 2.5 2.5z"></path>
</symbol>
<symbol id="ico-gitlab" viewBox="0 0 28 28">
<path d="M1.625 11.031l12.375 15.859-13.563-9.844c-0.375-0.281-0.531-0.766-0.391-1.203l1.578-4.813zM8.844 11.031h10.313l-5.156 15.859zM5.75 1.469l3.094 9.562h-7.219l3.094-9.562c0.172-0.484 0.859-0.484 1.031 0zM26.375 11.031l1.578 4.813c0.141 0.438-0.016 0.922-0.391 1.203l-13.563 9.844 12.375-15.859zM26.375 11.031h-7.219l3.094-9.562c0.172-0.484 0.859-0.484 1.031 0z"></path>
</symbol>
<symbol id="ico-download" viewBox="0 0 32 32">
<path d="M23 14l-8 8-8-8h5v-12h6v12zM15 22h-15v8h30v-8h-15zM28 26h-4v-2h4v2z"></path>
</symbol>
<symbol id="ico-terminal" viewBox="0 0 32 32">
<path d="M0 2v28h32v-28h-32zM30 28h-28v-24h28v24zM28 6h-24v20h24v-20zM14 16h-2v2h-2v2h-2v-2h2v-2h2v-2h-2v-2h-2v-2h2v2h2v2h2v2zM22 20h-6v-2h6v2z"></path>
</symbol>
<symbol id="ico-github" viewBox="0 0 32 32">
<path d="M16 0.395c-8.836 0-16 7.163-16 16 0 7.069 4.585 13.067 10.942 15.182 0.8 0.148 1.094-0.347 1.094-0.77 0-0.381-0.015-1.642-0.022-2.979-4.452 0.968-5.391-1.888-5.391-1.888-0.728-1.849-1.776-2.341-1.776-2.341-1.452-0.993 0.11-0.973 0.11-0.973 1.606 0.113 2.452 1.649 2.452 1.649 1.427 2.446 3.743 1.739 4.656 1.33 0.143-1.034 0.558-1.74 1.016-2.14-3.554-0.404-7.29-1.777-7.29-7.907 0-1.747 0.625-3.174 1.649-4.295-0.166-0.403-0.714-2.030 0.155-4.234 0 0 1.344-0.43 4.401 1.64 1.276-0.355 2.645-0.532 4.005-0.539 1.359 0.006 2.729 0.184 4.008 0.539 3.054-2.070 4.395-1.64 4.395-1.64 0.871 2.204 0.323 3.831 0.157 4.234 1.026 1.12 1.647 2.548 1.647 4.295 0 6.145-3.743 7.498-7.306 7.895 0.574 0.497 1.085 1.47 1.085 2.963 0 2.141-0.019 3.864-0.019 4.391 0 0.426 0.288 0.925 1.099 0.768 6.354-2.118 10.933-8.113 10.933-15.18 0-8.837-7.164-16-16-16z"></path>
</symbol>
<symbol id="ico-linkedin2" viewBox="0 0 32 32">
<path d="M12 12h5.535v2.837h0.079c0.77-1.381 2.655-2.837 5.464-2.837 5.842 0 6.922 3.637 6.922 8.367v9.633h-5.769v-8.54c0-2.037-0.042-4.657-3.001-4.657-3.005 0-3.463 2.218-3.463 4.509v8.688h-5.767v-18z"></path>
<path d="M2 12h6v18h-6v-18z"></path>
<path d="M8 7c0 1.657-1.343 3-3 3s-3-1.343-3-3c0-1.657 1.343-3 3-3s3 1.343 3 3z"></path>
</symbol>
</defs>
</svg>
